<svg xmlns="http://www.w3.org/2000/svg" xmlns:xlink="http://www.w3.org/1999/xlink" viewBox="0 0 1920 1080"><defs><style>.cls-1,.cls-10,.cls-11,.cls-12,.cls-13,.cls-21,.cls-35,.cls-7{fill:none;}.cls-2{clip-path:url(#clip-path);}.cls-3{fill:url(#linear-gradient);}.cls-4{fill:url(#linear-gradient-2);}.cls-5{fill:url(#linear-gradient-3);}.cls-6{fill:url(#linear-gradient-4);}.cls-10,.cls-11,.cls-12,.cls-35,.cls-7{stroke:#3a055a;}.cls-10,.cls-11,.cls-12,.cls-13,.cls-21,.cls-35,.cls-7{stroke-linecap:round;}.cls-10,.cls-11,.cls-12,.cls-13,.cls-21,.cls-7{stroke-linejoin:round;}.cls-21,.cls-7{stroke-width:0.7px;}.cls-8{fill:url(#linear-gradient-5);}.cls-9{fill:#3a055a;}.cls-10{stroke-width:3px;}.cls-11,.cls-35{stroke-width:2px;}.cls-12{stroke-width:1.6px;}.cls-13{stroke:#8d84bc;}.cls-14{fill:#fff;}.cls-15{fill:url(#linear-gradient-6);}.cls-16{fill:url(#linear-gradient-7);}.cls-17{fill:url(#linear-gradient-8);}.cls-18{fill:url(#linear-gradient-9);}.cls-19{fill:url(#linear-gradient-10);}.cls-20{fill:url(#linear-gradient-11);}.cls-21{stroke:#fff;}.cls-22{fill:url(#linear-gradient-12);}.cls-23{fill:url(#linear-gradient-13);}.cls-24{fill:url(#linear-gradient-14);}.cls-25{opacity:0.7;fill:url(#linear-gradient-15);}.cls-26{fill:url(#linear-gradient-16);}.cls-27{fill:url(#linear-gradient-17);}.cls-28{fill:url(#linear-gradient-18);}.cls-29{fill:url(#linear-gradient-19);}.cls-30{fill:url(#linear-gradient-20);}.cls-31{fill:url(#linear-gradient-21);}.cls-32{fill:url(#linear-gradient-22);}.cls-33{fill:url(#linear-gradient-23);}.cls-34{fill:url(#linear-gradient-24);}.cls-35{stroke-miterlimit:10;}.cls-36{fill:url(#linear-gradient-25);}.cls-37{fill:url(#linear-gradient-26);}.cls-38{fill:url(#linear-gradient-27);}.cls-39{fill:url(#linear-gradient-28);}.cls-40{fill:url(#linear-gradient-29);}.cls-41{fill:url(#linear-gradient-30);}.cls-42{fill:url(#linear-gradient-31);}.cls-43{fill:url(#linear-gradient-32);}.cls-44{fill:url(#linear-gradient-33);}.cls-45{fill:url(#linear-gradient-34);}.cls-46{fill:url(#linear-gradient-35);}.cls-47{fill:url(#linear-gradient-36);}.cls-48{fill:url(#linear-gradient-37);}.cls-49{fill:url(#linear-gradient-38);}.cls-50{fill:url(#linear-gradient-39);}.cls-51{fill:url(#linear-gradient-40);}.cls-52{fill:url(#linear-gradient-41);}</style><clipPath id="clip-path"><rect class="cls-1" x="2.07" y="1.08" width="1920" height="1080"/></clipPath><linearGradient id="linear-gradient" x1="136.64" y1="662.2" x2="352.64" y2="759.62" gradientUnits="userSpaceOnUse"><stop offset="0" stop-color="#c9e8bd"/><stop offset="1" stop-color="#5ed4dd"/></linearGradient><linearGradient id="linear-gradient-2" x1="303.96" y1="661.75" x2="308.71" y2="841.34" xlink:href="#linear-gradient"/><linearGradient id="linear-gradient-3" x1="1677.58" y1="334.67" x2="1682.35" y2="539.55" xlink:href="#linear-gradient"/><linearGradient id="linear-gradient-4" x1="1375.43" y1="612.33" x2="1373.05" y2="783.86" xlink:href="#linear-gradient"/><linearGradient id="linear-gradient-5" x1="965.09" y1="981.55" x2="953.76" y2="653.05" gradientUnits="userSpaceOnUse"><stop offset="0" stop-color="#7b8bf2"/><stop offset="0.49" stop-color="#a796f8"/><stop offset="1" stop-color="#d5a1fe"/></linearGradient><linearGradient id="linear-gradient-6" x1="1044.82" y1="324.97" x2="1431.04" y2="324.97" gradientUnits="userSpaceOnUse"><stop offset="0" stop-color="#f0ebb7"/><stop offset="1" stop-color="#f58d8c"/></linearGradient><linearGradient id="linear-gradient-7" x1="1044.82" y1="650.21" x2="1431.04" y2="650.21" xlink:href="#linear-gradient-6"/><linearGradient id="linear-gradient-8" x1="1044.82" y1="138.43" x2="1431.02" y2="138.43" xlink:href="#linear-gradient-6"/><linearGradient id="linear-gradient-9" x1="1044.82" y1="772.54" x2="1431.04" y2="772.54" xlink:href="#linear-gradient-6"/><linearGradient id="linear-gradient-10" x1="1123.28" y1="239.15" x2="1175.35" y2="496.46" xlink:href="#linear-gradient-6"/><linearGradient id="linear-gradient-11" x1="1171.3" y1="550.55" x2="1100.89" y2="580.19" xlink:href="#linear-gradient-6"/><linearGradient id="linear-gradient-12" x1="1321.41" y1="807.8" x2="1265.66" y2="849.62" xlink:href="#linear-gradient-6"/><linearGradient id="linear-gradient-13" x1="1254.1" y1="824.61" x2="1217.5" y2="853.58" xlink:href="#linear-gradient-6"/><linearGradient id="linear-gradient-14" x1="1180.09" y1="644.77" x2="1276.43" y2="644.77" xlink:href="#linear-gradient-6"/><linearGradient id="linear-gradient-15" x1="1200.43" y1="944.83" x2="1485.07" y2="944.83" gradientUnits="userSpaceOnUse"><stop offset="0.01" stop-color="#3a055a" stop-opacity="0.1"/><stop offset="0.52" stop-color="#3a055a" stop-opacity="0.2"/></linearGradient><linearGradient id="linear-gradient-16" x1="742.21" y1="832.31" x2="834.69" y2="832.31" xlink:href="#linear-gradient-15"/><linearGradient id="linear-gradient-17" x1="711.86" y1="813.77" x2="734.49" y2="798.68" xlink:href="#linear-gradient-6"/><linearGradient id="linear-gradient-18" x1="1740.69" y1="1080.38" x2="1734.71" y2="906.93" xlink:href="#linear-gradient-5"/><linearGradient id="linear-gradient-19" x1="734.11" y1="559.54" x2="738.87" y2="650.07" xlink:href="#linear-gradient"/><linearGradient id="linear-gradient-20" x1="686.67" y1="778.47" x2="783.22" y2="778.47" xlink:href="#linear-gradient"/><linearGradient id="linear-gradient-21" x1="712" y1="827.95" x2="698.24" y2="807.32" xlink:href="#linear-gradient-5"/><linearGradient id="linear-gradient-22" x1="674.35" y1="841.82" x2="659.96" y2="824.5" xlink:href="#linear-gradient-5"/><linearGradient id="linear-gradient-23" x1="973.41" y1="947.58" x2="958.05" y2="929.09" xlink:href="#linear-gradient-5"/><linearGradient id="linear-gradient-24" x1="1153.04" y1="922.37" x2="1127.79" y2="891.98" xlink:href="#linear-gradient-5"/><linearGradient id="linear-gradient-25" x1="1164.21" y1="875.11" x2="1172.51" y2="875.11" xlink:href="#linear-gradient-5"/><linearGradient id="linear-gradient-26" x1="1371.32" y1="942.79" x2="1376.4" y2="942.79" xlink:href="#linear-gradient-5"/><linearGradient id="linear-gradient-27" x1="1069.83" y1="880.23" x2="1657.01" y2="880.23" xlink:href="#linear-gradient"/><linearGradient id="linear-gradient-28" x1="706.08" y1="695.99" x2="734.6" y2="695.99" xlink:href="#linear-gradient-6"/><linearGradient id="linear-gradient-29" x1="712.35" y1="733.27" x2="752.92" y2="733.27" xlink:href="#linear-gradient-6"/><linearGradient id="linear-gradient-30" x1="710.84" y1="748.37" x2="681.35" y2="771.1" xlink:href="#linear-gradient-6"/><linearGradient id="linear-gradient-31" x1="751" y1="777.89" x2="735.77" y2="802.54" xlink:href="#linear-gradient-6"/><linearGradient id="linear-gradient-32" x1="705.75" y1="808.93" x2="878.13" y2="808.93" xlink:href="#linear-gradient"/><linearGradient id="linear-gradient-33" x1="1169.52" y1="1061.68" x2="1163.37" y2="883.47" xlink:href="#linear-gradient-5"/><linearGradient id="linear-gradient-34" x1="1626.78" y1="900.56" x2="1622.06" y2="799.17" gradientUnits="userSpaceOnUse"><stop offset="0.01" stop-color="#3a055a" stop-opacity="0"/><stop offset="0.52" stop-color="#3a055a" stop-opacity="0.2"/></linearGradient><linearGradient id="linear-gradient-35" x1="105.8" y1="966.09" x2="97.42" y2="785.96" xlink:href="#linear-gradient-34"/><linearGradient id="linear-gradient-36" x1="1024.69" y1="1015.12" x2="1020.25" y2="919.7" xlink:href="#linear-gradient-34"/><linearGradient id="linear-gradient-37" x1="731.08" y1="926.5" x2="727.09" y2="840.75" xlink:href="#linear-gradient-34"/><linearGradient id="linear-gradient-38" x1="341.96" y1="882.03" x2="337.97" y2="796.28" xlink:href="#linear-gradient-34"/><linearGradient id="linear-gradient-39" x1="2213.35" y1="190.63" x2="2209.36" y2="104.88" gradientTransform="matrix(1, 0.08, -0.11, 1.31, -330.34, 436.45)" xlink:href="#linear-gradient-34"/><linearGradient id="linear-gradient-40" x1="1279.25" y1="911.47" x2="1282.57" y2="911.47" xlink:href="#linear-gradient-5"/><linearGradient id="linear-gradient-41" x1="1230.31" y1="936.67" x2="1233.63" y2="936.67" xlink:href="#linear-gradient-5"/></defs><title>Artboard 1 copy 6</title><g id="ISIW"><g class="cls-2"><polyline class="cls-3" points="-17.46 640.39 33.37 620.27 128.66 682.74 266.31 674.27 308.66 653.09 370.08 640.39 418.79 664.74 525.73 622.39 617.85 732.51 -11.11 810.86"/><path class="cls-4" d="M-5.81,735.68c10-13.57,31.86-41.87,52.51-29.19,16.95,10.42,5.78,22.52,35.37,20.72,30.47-1.84,30.92-53.51,54-69.88,28-19.83,59.76,8.13,81.54,28.59,25.9,24.34,25.07,2.92,51.76,5.24,24.9,2.15,22.3,45.81,49.62,20.17,10.53-9.87,29.94-65.79,54.19-44.15,12.95,11.56-5.21,57.43,22.63,58.2,15.93.45,20.7-25.58,37.12-26.17,15.65-.56,13.18,15.6,26.55,19.79,18.09,5.68,20.28-12.26,28.35-24.63,12.93-19.81,29.66-30,44.16-22.06s-10.51,32.29,5.87,38.92c17.4,7,10.53-17.13,30.45-10.84,10.28,3.25,9.34,11.73,22.38,6.3,7.71-3.22,40.91-12.87,35.26,27.49-2,14-37.38,10.61-50.16,12.38-89,12.36-179.93,20.85-268.35,36-79.7,13.68-153.38,26.66-234.61,25.9-28.67-.27-57.48-4.69-86.06-4"/><polyline class="cls-5" points="1428.92 620.27 1468.1 538.74 1510.45 517.56 1578.22 554.62 1638.57 478.38 1767.75 506.97 1940.34 427.56 1912.81 725.09 1425.74 711.33"/><path class="cls-6" d="M825.38,720.86c9.59-24,19.71-14.23,38-22.11,19.72-8.52,22.62-44.87,42.46-49.22,17.65-3.87,28.76,22.75,48.35,20.05,25.33-3.49,37.94-39.35,55.66-53.84,24.77-20.24,28.74-1.65,41.25,19,13.73,22.65,25.33,19.07,48.72,9,56.8-24.33,82.93-56.31,143.84-19.16,50.13,30.58,103.49,27.68,141.19-17.94,14.28-17.28,34-40.12,59.63-33.67,26.31,6.61,22.71,32.42,31.27,52.46,26,61,99.87-34.93,122.12,26.18,33.1,91,78.4-52.72,125.6-34.86,22,8.34,25.63,40.5,53.46,45.72,28.11,5.27,47.2-18.93,71-28.59,56.39-22.91,79.9,36.65,74,84.85-1.16,9.34-3.37,17.67-9,25.4"/><polyline class="cls-7" points="1509.35 520.52 1508.1 544.93 1565.68 559.95"/><line class="cls-7" x1="1643.92" y1="486.1" x2="1734.67" y2="528.66"/><line class="cls-7" x1="372.19" y1="646.74" x2="402.9" y2="674.27"/><path class="cls-8" d="M-7.93,776.71s436.77-47.47,935.49-66.46,1005.37,11.08,1005.37,11.08V1045.4H-9.52Z"/><path class="cls-9" d="M1665.4,578.91c-1.84-11.12-11.7-26-21.66-31.12-6.89-3.55-29.35-15.1-35.43-5.28a24.9,24.9,0,0,0,9.92-.19c-3.73,2.45-11.27,4.77-12.11,9.38,6.07.71,10.72-2.53,16.2-4-2.54,2-13.58,8.11-11.89,12.44s10.49-3.87,13.49-4.88c-2.16,2.78-4.55,5.79-4.6,9.41,5-.14,10-6,14.44-8.47-1,2.83-3.11,5.54-3.06,8.79,2.72.14,5-1.48,6.62-3.63a8.86,8.86,0,0,0-2.2,7.4c3.63,1,7.88-2,11.9-1.77,2.48,4.28,10.49,14,16.17,11.63"/><path class="cls-9" d="M1641.07,551.75c-4-4.17-12-8.7-14.69-13.53-3.74-6.61,2.06-3.18,6.75-2.32-1.77-3.09-6.31-4.62-6.87-8.75,4.23-.84,6.71,2.59,10.66,2.12-2.51-5.44-9.3-7.74-9.07-15.07,22.36-2.12,46.73,36,43.9,55.19-.68,4.65-4.39,11.24-9.83,7.31"/><path class="cls-9" d="M1661.29,536.9c-1.93-8.69-14.94-15.07-15.15-24,3.12.16,6,2.16,8.22,4.27-.36-1.34.25-2.94,0-4.27,22-2.13,29.39,47.57,20.09,60.59-2.33,3.26-7.87,6.24-11,2.54"/><path class="cls-10" d="M1667.13,573.75c.16,36.76.4,45.62,1.56,64.3,1.91,30.91-9.72,62.72-9.72,62.72"/><path class="cls-11" d="M487.85,594.43c-1.13,0-.38,13.52-1.13,18.4s4.88,4.89,5.26,29.67.75,64.59.37,92.38"/><path class="cls-9" d="M486,600.48c-2.7,1.55-5.11,4.4-7.92,6.14a9,9,0,0,1,.15-3.94,41.73,41.73,0,0,1-6.49,3.74,11.48,11.48,0,0,1,.15-1.75c-2.64,1.45-4.78,4.87-8.1,4.72a7.32,7.32,0,0,1,.59-3.67c-1,1.12-4.84,7-6.7,6.29-2-.8.14-5.58.54-6.89a16.24,16.24,0,0,1-9.91,6.66c-.3-2.31,1.09-4.18,1.52-6.3-1.67.29-7.06,2.44-6.35-1.18.5-2.59,9.06-4.47,11.28-5,8.22-2,17-2.19,25.37-2.31,2.33,0,4.28-.24,6.27,1.13"/><path class="cls-9" d="M486,594.33a26.8,26.8,0,0,0-14.59-2.09c-4,.6-8.49,2.89-12.58,1.86a3.83,3.83,0,0,1,1.54-4.1c-4.34,0-7.59,4.85-11.86,5.09-.29-2.06,1.37-3.4,2.53-4.89-4.51.25-8.84,2.79-13.45,2.71.4-1,.52-2.43,1.14-3.32-4.4.72-10.57-.4-3.31-4,5.19-2.53,12.87-1.5,18.53-1.86,8.9-.57,16.82,3.89,25.18,6.55,2.54.81,4.48,2.34,6.87,3.2"/><path class="cls-9" d="M482.05,592c-.39-6.5-7.26-8.23-12.52-8.73-1.72-.17-16.49-2.44-9.53-5.53-2-.07-14.56,1.21-9.14-3.58-2.45,0-12.05,2.07-13.16-2-1.34-4.89,10.89-6.88,13.74-6.85-4.86-13.61,12.27-14.92,20.86-9.91-.71-.72-1.31-1.86-2.06-2.62,4.76-.91,7.78,5.6,11.37,6.52,2.11.55,2.05-1.24,4.64.93,2.17,1.82,3.7,5,4.88,7.53a23.42,23.42,0,0,1,2.07,7.29c7.76-3.92,2.23,4.44-.42,6.93,7.16-1.26-2.59,11.34-5.57,12.75"/><path class="cls-9" d="M488.2,597.7c7.64,0,11.41-11.26,16.84-14.86.61,3.54-2.79,6-3.92,9.1a6.79,6.79,0,0,1,4.13-1.55c.23,4.72-13.67,15.64-17.25,10.49"/><path class="cls-9" d="M851.43,655.9c-4.92,2.83-14.53,5.64-20,4.05-7.83-2.26,1.54-4.29,5.15-5.09-3.48-1-6.65-1.38-9.13-4.24,4.74-1.66,18.34-.32,22.32,2.85"/><path class="cls-9" d="M857.25,659.3c-2.93-3.76-10.27-5.15-14.5-7.36-2.72-1.42-5.56-3.24-8.06-4.54,2.82-1.67,5,.13,7.67.74-2.88-1.58-5.7-4.63-6-8,4.12-.45,6.84,3.82,10.36,5-.16-2.09-4.08-8.38-1.08-9.42,2.34-.81,4.33,4.45,5,6.2.18-3.38-1.6-6.47-1.67-9.83,3.14.78,5.12,4.78,8,6.43a28.69,28.69,0,0,1,.27-6.44c9.93,2.34,6,21.25,1.41,26.43"/><path class="cls-12" d="M857.76,656.84s-.3,42.32-.61,56.27"/><path class="cls-9" d="M919.89,637.94c0-10-18.71-1.53-22.6-.65-8.91,2-11.39-2.17-1.69-5.47-1.44-.82-6.82-1.52-6.29-3.81.43-1.84,7-1.7,8.52-2-1.6-.93-8.65-2.79-8.3-5.17.31-2.14,6.8-1.53,8.48-1.67-1.8-.91-8.75-1.43-8.92-4.46-.22-3.8,5.95-1.14,7.95-.87-.82-1.24-4.74-3.72-3.41-5.56,1.21-1.69,4.57.53,5.64,1.38a9.53,9.53,0,0,1-1.68-4.49c5.47.29,9,10.85,13,14.2a39.21,39.21,0,0,0-.66-4.26c7.73,2.62,11.3,15.51,12.11,22.07"/><path class="cls-9" d="M921.34,634.29c.9-4.55,3.1-7.61,2.21-12.58-.73-4.06-4.6-8-4.65-11.65,1.64.71,2.32,2.55,3.36,4.25.22-2.55-.28-5.09-.15-7.65,2.74.14,3,3.45,3.6,5.71.64-2.28.71-4.71,1.27-7,6.39,5.45,3.48,26.64-4.18,30.82"/><path class="cls-12" d="M923.7,639.36s1.07,24.07-.46,33.89-3.84,36.18-3.68,36.65"/><path class="cls-9" d="M950.23,669c.38-9.9-12.28-7.81-15-14.34a13.22,13.22,0,0,1,2.81-.23c-3.37.29-9.23-3.19-7.66-7a13.19,13.19,0,0,1,7.22,2.61c-1.94-2.47-4.81-4.72-4.79-8.19,2.86-.64,4.48,1.47,6.05,3.52-1.1-3.35-3-8.86,2.39-6,2.45,1.28,4.58,6,6.83,8a14.73,14.73,0,0,1,.46-5.49c4.43,1.31,8.31,23.86,3.9,26.2"/><path class="cls-9" d="M951.21,658.57c4.65-5.29,6.07-14.36,12.34-18.13a21.45,21.45,0,0,1-.35,5.49c1.4-2,2.79-4.7,5.26-5,1.41,6.7-9.6,25.71-16,24.73"/><path class="cls-12" d="M950.69,671s-3.22,21.31-.62,34.65"/><path class="cls-13" d="M1672.76,543.46c-5-9.47-26.42-10-34-3.89,2.55,1,5.51.71,8.34.76-2.89,1.79-7.54,2.65-7.19,6.95,4.32,1.56,8.35-2.18,12.3-3.42-2.86,2.43-5.56,5.49-5.38,9.45,4.27.62,14.29-4.22,17.48-7.26-16.35,19.62,11.22,7.28,10.85,1.3"/><path class="cls-14" d="M1274.63,525.13s61.21,113.66,97,232h0l3-7.67s-31.69-110-96.72-225.25h0l-3.2.87"/><path class="cls-15" d="M1273.67,471.64C1202.88,352.55,1130.74,232.21,1082.49,165l192.84,317c2.05,1,4.1,2,6.12,3Q1277.61,478.27,1273.67,471.64Z"/><path class="cls-16" d="M1388.82,730.27l38.26,99.67,4,1.13-100.86-259L1275.33,482c-9-4.41-18.29-8.62-27.72-12.59,47.88,87.38,98.59,189.16,125.9,276.82l14.07-22.33Z"/><path class="cls-17" d="M1044.82,124.94c1.52-2.31,2.44-3.68,2.44-3.68,9.34,9.26,21.29,24.27,35.23,43.7l-32.28-53.06Z"/><path class="cls-18" d="M1351.62,784.92l-81.79-19.85,7.14,18.26L1427.08,829l-38.26-106.06-1.24-6.83-14.07,23.76c.35,1.18.7,2.37,1,3.54Z"/><polygon class="cls-14" points="1351.62 788.53 1269.83 769.88 1276.97 787.04 1427.08 829.94 1388.82 730.27 1387.58 723.85 1351.62 788.53"/><path class="cls-19" d="M1044.82,124.94c-6.44,9.82-23.75,36.75-28.12,49.14-8.51,24.11,9.16,25.52,21.54,63.62s13.52,61.4,13.52,61.4,6.76,15.88,13.52,48.69c2.16,10.49,24.83,110.51,31,151.29,0,0,108.24,5.87,186.71,43.13-14.14-25.81-63.94-124.58-78.28-150.69C1145.49,283.7,1056.62,143.48,1044.82,124.94Z"/><path class="cls-14" d="M1018,205.44l12.36-16.87s36-8.87,57.69-9.49l-3.59-4.5s-50.11,4.25-70.59,11.49C1013.9,186.07,1014.3,198.94,1018,205.44Z"/><path class="cls-7" d="M1090.14,731.37c-4.5,20.59-18.05,42.43-48.23,56.73-18.73,8.87,1.25,32.08,34.08,10.2s41.19-48.91,41.19-48.91"/><path class="cls-9" d="M1081.93,726.84c10.72-7,127.67-79.65,188.47-117.34s79.64-47.42,91.8-52.89,20.68.61,7.3,8.51-102.14,60.19-126.46,76.6-139.67,85.54-152,93C1074,745.08,1060.65,740.82,1081.93,726.84Z"/><path class="cls-20" d="M1158.29,551.75c-2-8-5.47-15-8.38-18.57-3.57-4.37-23,3.57-23,3.57S1107,539.14,1111,569.31c0,0,3.18,15.09,1.19,25,0,0,14.69,0,25.81,3.18,0,0-.79-9.14,0-11.12s9.53,4.76,13.9.39c3.13-3.13,6.45-11.56,7.5-19.88a6.48,6.48,0,0,0,2-.21C1168.85,564.58,1161.55,555.38,1158.29,551.75Z"/><path class="cls-14" d="M1126.69,593.06c8.37,2,19.92-4.78,70.9,41.42,0,0-7.12,18.84-17.5,29.34,0,0-25.92-17.39-38.26-32.93S1126.69,593.06,1126.69,593.06Z"/><path class="cls-21" d="M124.43,793.92c15.12-7.81,47.2-6.87,66.54-10.74-3.51-2.84-9.27-6.35-15.63-7C235.9,757,310.88,764.55,374,762.12c13.43-.52,27,.26,40.38-.15-5.55-6.64-17.43-7.37-25.22-10.17,30.82-1.14,61.41-3.09,92-5.43,38.54-2.93,82.79-.47,119.68-7.51"/><path class="cls-21" d="M800,726.69c19.19-4.11,42.92-4.65,63.26-6.62,11.75-1.14,27-2.91,38.2-.15-9.14,6-26,5.81-32.58,14.6,35.56,1.25,71.72-5.79,107.18-8.74,25.56-2.14,58.11.17,81.76-8.62"/><path class="cls-21" d="M1451.16,720.86c29.49,3,59.69-1.79,89.26-1.66,31.49.14,62.82,3.26,94.14,6.08,15.41,1.39,43,7.59,57-.18-6.3-3-14.8-1.35-21.32-2.64,13.25-9.35,44.85-3.33,60.23-3.71,28.63-.69,63.24-4.29,90.73,2.11"/><path class="cls-21" d="M364.39,788.3c52.8-14.19,109.56-30,165.51-32.78"/><path class="cls-21" d="M850,754.43c28.72-.47,57.53-2.27,86.22-3.89,7.22-.41,16.23.89,23-1.57"/><path class="cls-21" d="M1761.1,750.61c51.32-8.11,103.79,3.76,155.12,3.27"/><path class="cls-21" d="M517.36,830.66s35.47.61,82.95-22.84"/><path class="cls-22" d="M1230.1,789.4a225.27,225.27,0,0,0,29.4.68s3.58,26.21,16.68,38.12,36.13,29.78,43.28,38.52a52.15,52.15,0,0,1,9.53,18.66s57.57,1.59,55.19-5.16-16.67-13.11-40.9-14.3c0,0-35.33-48.44-44.07-63.53s-24.18-44.06-57.29-55.55A60.1,60.1,0,0,1,1230.1,789.4Z"/><path class="cls-23" d="M1186.87,784s-.68,8.9-7.43,14.86l24.08,10.28s1.59,16.28,6.75,23,32.56,34.55,36.92,42.88a42,42,0,0,1,4.77,15.49l40.9-2.78s-.8-7.15-24.22-8.73c0,0-11.12-27.8-17.87-42.49s-27.4-48.44-27.4-48.44S1196.4,784.4,1186.87,784Z"/><path class="cls-24" d="M1195.58,632.45s15.48,14.69,18.66,15.88,16.28-12.31,23.43-19.85,11.11-9.53,12.3-11.92,3.18-9.13,10.33-9.13,19.85.4,15.09,8.74-12.71,9.92-16.68,14.69-12.71,23.82-23,33.75S1217,688,1203.52,679.3s-23.43-15.48-23.43-15.48S1192.4,649.12,1195.58,632.45Z"/><path class="cls-9" d="M1103.79,572.27c4.26-3.44-1.53-12.94-2.48-17.36-2.47-11.54-4.13-31.95,8.87-33.88,5.21-4.38,10.62-4.91,15.23-5.22,8.4-.56,12.88-4.55,13,2.65,1.45-8.46,5.76-2.92,5.38,3,.24-8.28,6.49-2.21,5.84,3.33,0,.16,0,.16,0,0,.81-1.45,1.2-1.09,2.48-1.66.09,7.28-2.44,9.61-6.7,15-1.69,2.14-3,7.49-5.9,8.29-3.46.95-4.1-4.6-6.56-3.94-6.26,1.67-1.21,9.78-1.26,12.72-.06,4.8-4.69,11.93-7.76,15.38C1117,578.35,1103.79,572.27,1103.79,572.27Z"/><path class="cls-9" d="M1131.38,593.8s-16.85-7.31-30.7,3.71c-23.64,18.8-11.12,59.29-7.94,78.35s15.35,63.53,15.35,63.53a69.82,69.82,0,0,0,43.07-6.63c23.49-12.12,30-19.31,30-19.31-6.35-22.77-12.7-34.94-15.88-61.41,0,0-17.47-11.12-23.83-24.89S1131.38,593.8,1131.38,593.8Z"/><path class="cls-14" d="M1108.09,739.39c2.65,13.24,10.06,37.76,71.35,59.47,0,0,5.6-3.38,8.78-13.17,0,0,30.23,3.18,41.88,3.71,0,0,15.48-18.92,12.84-42.22,0,0-24.2-13.08-61.79-33.73A132.55,132.55,0,0,1,1149.92,732C1126.93,741.44,1108.09,739.39,1108.09,739.39Z"/><path class="cls-7" d="M1138.44,625.74c5.63-5.23,12.06-10.45,23.31-.81s26.69,21.35,26.69,21.35"/><path class="cls-7" d="M1151.19,568.43a9.55,9.55,0,0,0,3.35,3.83"/><polygon class="cls-9" points="1432.73 875.79 1447.32 847.83 1478.32 864.24 1432.73 875.79"/><path class="cls-7" d="M1309.61,598.14c-.64,14.81-2.55,51.27-19.93,66.07s-36.06,11.81-20.62-5.57,45.51-32.51,65.65-48.91c27.67-22.53,29.61-44.41,29.61-44.41"/><path class="cls-9" d="M1426.67,844.85l20.4-9.17s-70.09-202.6-149-341S1106.24,176.6,1048.72,102l-7.1,8.34s63.82,90.88,129.74,201.33c39.41,66.05,96.09,159,156.83,282.23C1362.9,664.34,1417.79,819,1426.67,844.85Z"/><path class="cls-14" d="M1047.85,289.4s64.74,6,122.56,32.05l2,7s-48.43-19-97.35-28.79l-23.73,12.07Z"/><path class="cls-7" d="M1044.56,116.43s-34.94,39.77-36,62.65,9.53,37.81,18,47.76c0,0,14.82,39.8,15.89,71.64a200.69,200.69,0,0,1,11.64,39.81"/><path class="cls-7" d="M1058.23,369.4s27.74,178.14,34.09,225.9"/><path class="cls-25" d="M1200.43,945.84c7.82,18.29,69.44,18.18,95.26,18.29,32.41.14,185.83-20.87,189.31-33.79,2-11.43-33.79,0-161.08,8.78-21.77,1.5-55.07,1.51-76.42-2.32-14.42-2.59-18.91-2.42-33.62-2.72"/><path class="cls-7" d="M1167.38,728.54s17.26,12.92,72.06,33.57"/><line class="cls-21" x1="1360.37" y1="741.75" x2="1345.49" y2="770.36"/><path class="cls-26" d="M742.21,835.38c9.83,2.46,33.17,3.07,54.67,1.23s27-4.92,35-7.37-2.46-3.07-14.13-1.23-50.37,2.46-57.74,3.07"/><path class="cls-27" d="M722.07,782.54c-.19,7-1.19,18.66,10.53,38.71l5-.2-6.95-40.3Z"/><path class="cls-28" d="M1450.1,1013.63c96.22-24,168.78-89,273.93-72.81,44.38,6.82,86.38,24.37,131.22,31.06,41.8,6.24,102-9.94,139.65,5.8,36.61,15.28,41.35,54.84,16.89,83.68-53.51,63.1-181.27,62.05-255.16,69.8"/><path class="cls-29" d="M768.32,665.24l-3.87-1.51s-4.33-18-8.14-28.35C740.93,593.45,724,556,724,556l1.71-2.77c-5.15-11.22-9.18-19.53-11-23.33-4.65,8.11-14.37,25.07-17,29.38C694.3,565,704.6,574.2,704,598.23s-4.58,171.09-4.58,171.09,2.41.56,6.53,1.56l4-118.18s42.08,16.31,61.64,35.53l15.86,75.58,2.83-3.85C785.06,731.82,779.07,702.89,768.32,665.24Z"/><path class="cls-14" d="M756.31,635.38c3.81,10.39,8.14,28.35,8.14,28.35l3.87,1.51c-.77-2.68-1.55-5.4-2.37-8.17-11.06-37.63-28.52-78.29-40.21-103.8L724,556S740.93,593.45,756.31,635.38Z"/><path class="cls-9" d="M774.41,669.19C755,603.38,717.19,525.56,717.19,525.56l-2.5,4.38C720.82,542.39,750,602.88,766,657.07c17.53,59.59,23.21,97.41,31.67,141.93l6.55-1.64S790.21,722.64,774.41,669.19Z"/><path class="cls-21" d="M696.86,563.62s12.53-6.14,26.12-7.8"/><path class="cls-30" d="M778.21,791.68l2.71-3.85c-10.3-3-52.77-15.51-74.74-22.57l-.2,5.62C719.47,774.15,751.37,782.24,778.21,791.68Z"/><path class="cls-31" d="M710.2,823.45c-7.85-.66-13.66-4.54-15.06-11.8,2.67-1,5.76.83,7.82.7.42.84-2.92-3.41-2.47-4,3.42.52,5.63,2.15,8.62,4.18"/><path class="cls-32" d="M678.65,837.59c-10.48-4.9-41.27-12.65-37.93-17.24s17.09.24,25,4.87c-.58-3.39-4.58-7.34-1-10.31s12,8.17,15.06,16.16"/><path class="cls-33" d="M993,930.66c-16-3.2-34.41-6.5-51-6,2.07,2.86,1.36,3.49,6,4.12-7,2-29.3,0-15.32,8.52,7.85,4.77,23.31,3.77,31.71,4.14"/><path class="cls-34" d="M1131.2,908.3c-14.43-5.79-42.45-13.45-39-21.59s19,3.66,28,6.23c-.33-2-7.2-.6-1.81-6.21s17.18,2.3,23.57,9.22c.27-2.26-3.07-2.88.35-7.07s18.18,12.48,30.3,16.16"/><polygon class="cls-9" points="802.16 807.23 804.48 800.27 812.11 806.24 802.16 807.23"/><path class="cls-35" d="M677,750s40.7-13.7,61.94-21.84,66.18-22.56,66.18-22.56"/><path class="cls-21" d="M1235.31,492.41a4.69,4.69,0,1,1-4.69-4.4A4.55,4.55,0,0,1,1235.31,492.41Z"/><path class="cls-21" d="M1047,900.51a3.73,3.73,0,1,1-3.72-3.72A3.72,3.72,0,0,1,1047,900.51Z"/><path class="cls-21" d="M807.61,889.43a3.73,3.73,0,1,1-3.72-3.72A3.73,3.73,0,0,1,807.61,889.43Z"/><path class="cls-21" d="M950.55,889.58a4.46,4.46,0,1,1-4.46-4.46A4.46,4.46,0,0,1,950.55,889.58Z"/><path class="cls-21" d="M915.66,856.39a5.58,5.58,0,1,1-5.57-5.57A5.57,5.57,0,0,1,915.66,856.39Z"/><path class="cls-21" d="M983.48,911.44a2.54,2.54,0,1,1-2.54-2.55A2.54,2.54,0,0,1,983.48,911.44Z"/><path class="cls-21" d="M1201.69,876.41a2.54,2.54,0,1,1-2.54-2.55A2.54,2.54,0,0,1,1201.69,876.41Z"/><path class="cls-21" d="M688.81,820.91a2.54,2.54,0,1,1-2.54-2.54A2.54,2.54,0,0,1,688.81,820.91Z"/><path class="cls-21" d="M1415.8,932.84a2.55,2.55,0,1,1-2.54-2.54A2.55,2.55,0,0,1,1415.8,932.84Z"/><path class="cls-14" d="M989.24,889.73a2.54,2.54,0,1,1-2.54-2.54A2.54,2.54,0,0,1,989.24,889.73Z"/><path class="cls-36" d="M1172.51,875.11a4.15,4.15,0,1,1-4.15-4.15A4.15,4.15,0,0,1,1172.51,875.11Z"/><path class="cls-37" d="M1376.4,942.79a2.54,2.54,0,1,1-2.54-2.54A2.55,2.55,0,0,1,1376.4,942.79Z"/><path class="cls-14" d="M1627.76,815.85c13.84-5,20.77-7.4,27.47-7.85,9.6-9.84-22-2.46-39.67,4.92-21.38,8.9-96.2,41.57-185.28,58.79s-172.21,13.65-231.59,20.78-128.86,29.1-128.86,29.1,37.41,2.37,65.91,7.72c10.27,1.92,22.09,5.47,33,9.22,71.78-10.37,179.5-26,247.78-41.67C1490.35,879.94,1609.31,822.52,1627.76,815.85Z"/><path class="cls-38" d="M1449.29,901.4c66.51-17.22,159.14-63.54,194.18-84.92,6-3.67,9.77-6.45,11.76-8.48-6.7.45-13.63,2.86-27.47,7.85-18.45,6.67-137.41,64.09-211.24,81-68.28,15.65-176,31.3-247.78,41.67,19.36,6.65,35.88,13.94,35.88,13.94S1382.78,918.62,1449.29,901.4Z"/><line class="cls-21" x1="1368.01" y1="558.93" x2="1281.92" y2="608.7"/><line class="cls-21" x1="1184.61" y1="670.12" x2="1172.96" y2="677.3"/><line class="cls-21" x1="1100.77" y1="721.69" x2="1074.76" y2="737.83"/><path class="cls-13" d="M1093,669.64c-2.77-14.3,10.36-35.87,32.87,5.4,17.46,32,24.7,37.21,37.78,49.92"/><path class="cls-39" d="M719.89,680.89s4.44,1.05,4,11.91c-.2,4.57-.59,10.92-7.74,9.93,0,0-3.18,5.16-2.78,8.53L705,707.89a17.52,17.52,0,0,0,2.78-7.35c.79-4.76-2.38-8.33.6-13.5S716.91,680.09,719.89,680.89Z"/><path class="cls-9" d="M723.48,685.43s1.37-7.52-9.35-8.11-10.72,4.56-17.07,5.95a105.3,105.3,0,0,1-14.49,1.79l6.75,4.17s-1.39.59-5.56-.4c0,0,5.36,12.11,16.48,11.52,0,0,9.69-.59,11.48-9.12S717.72,680.47,723.48,685.43Z"/><path class="cls-40" d="M720.09,720.6s-1.39,8.33-7.74,10.32c0,0,9.72,10.52,13.5,13.5S732.4,746,737,740.05a66.85,66.85,0,0,1,9.73-10.12s7.75-4.57,6-7.15-9.73,2-13.7,5.36S728,736.28,728,736.28,723.86,727.54,720.09,720.6Z"/><path class="cls-41" d="M687.53,753.55s-2,7.74-.6,13.3l20.65-3.17a54.64,54.64,0,0,0,.8-12.11"/><path class="cls-9" d="M720.75,721.57c-2.78-7.75-5.23-12.49-13.57-14.08s-12.9,5.76-14.89,15.09-4.76,31-4.76,31,1.61,2.47,11.4,2.92c8.25.39,9.45-1.53,9.45-1.53s2.48-8,2.48-12.58c0,0,5.92.48,7.5-5.28l-6-6.16s2-.2,4.76-3.18A16.3,16.3,0,0,0,720.75,721.57Z"/><path class="cls-42" d="M716.12,765.86c8.34,1.19,21.64,0,29.18,9.53s25,39.71,25,39.71l-7,1.59a63.23,63.23,0,0,1-5.72-8.55c-3.78-6.36-11-9.72-13.94-14.68a61.81,61.81,0,0,1-5-11.32c-5.36-.59-18.46,5.76-30,2.18"/><path class="cls-9" d="M686.14,762.68s10.72,3,21.44-.19c0,0,6.16,2.78,10.13,3,0,0,.7,11.5-4.46,20,0,0-16,1.86-22.94-7.12A22,22,0,0,1,686.14,762.68Z"/><line class="cls-21" x1="700.55" y1="587.61" x2="738.85" y2="599.39"/><line class="cls-21" x1="700.86" y1="624.2" x2="759.68" y2="651.63"/><path class="cls-14" d="M745,770.87c15.58-19.23,36.64-28.26,36.64-28.26l.65,1.93s-15.46,5.15-36.3,28.38Z"/><path class="cls-43" d="M877.6,789.41c2.85-3.47-6.45-2.87-14.49-.06-11.45,4-34.34,9.73-64.66,18.89s-64.66,9.72-92.7,14.3l23.49,8.29c27.48-5.54,79.29-14.72,113.34-27.23C853.92,799.44,870.19,789.91,877.6,789.41Z"/><path class="cls-14" d="M866.44,796.15c6.59-3.08,10-5.27,11.16-6.74-7.41.5-23.68,10-35,14.19-34.05,12.51-85.86,21.69-113.34,27.23l15.42,5.45C791,830,844.08,806.58,866.44,796.15Z"/><path class="cls-44" d="M811.61,966.78c39.66-8.17,173.2-44,231.89-48.45,105.62-7.94,192.18,50,247,58.77s62.74,8.74,62.74,8.74c34.15,3.17,209.65,16.67,303.36,23s65.91,85.76,63.53,86.56-916.43-13.5-918.81-13.5-183.45-35.74-188.21-33.36S784.61,972.34,811.61,966.78Z"/><path class="cls-45" d="M1317.35,931.5s236.51-33.16,330.48-77.37c5.28-1.38,198.49,49.74,290.35,58"/><path class="cls-46" d="M-202.61,1026.8s236.5-61.07,330.47-142.47c5.28-2.55,198.49,91.58,290.35,106.85"/><path class="cls-47" d="M812.29,1049s162.68-33.16,227.33-77.37c3.63-1.38,136.53,49.74,199.72,58"/><path class="cls-48" d="M551.81,956.91s137.36-29.76,191.93-69.43c3.07-1.24,115.28,44.63,168.63,52.07"/><path class="cls-49" d="M162.69,912.44S300,882.68,354.62,843c3.07-1.24,115.28,44.63,168.63,52.07"/><path class="cls-50" d="M1673.92,889.82s140-28.14,198.64-75.94c3.19-1.38,110.2,67.92,162.59,82"/><path class="cls-21" d="M1073.27,897.13c-5.55-1.87-20-10.64-13.9-16.48,4.22-4.06,21.07,2,25.71,3.43,12.75,4,30.52,8.08,39.5,18.63"/><path class="cls-21" d="M1360.74,1011.65c33-14.63,69.77-31.26,93.56-59.48,19.18,32.49,90,34.48,125.09,38.81"/><path class="cls-51" d="M1282.57,911.47a1.66,1.66,0,1,1-1.66-1.66A1.66,1.66,0,0,1,1282.57,911.47Z"/><path class="cls-52" d="M1233.63,936.67A1.66,1.66,0,1,1,1232,935,1.66,1.66,0,0,1,1233.63,936.67Z"/><path class="cls-13" d="M715.43,776.53c-5.59-.83-14.14-3-16.11-11.51"/><path class="cls-13" d="M708.69,708.62s-2.47,9.54,7.89,17.92"/><line class="cls-21" x1="714.07" y1="659.68" x2="729.42" y2="666.08"/><path class="cls-14" d="M778.21,791.68c6.82,2.4,13.31,4.89,19.09,7.4l.32-.08c-2.54-13.36-4.83-26.12-7.26-39l-2.83,3.85,2.37,11.27Z"/><path class="cls-9" d="M1152.11,551.74c.11,1.35-.6,2.51-1.58,2.59s-1.87-1-2-2.3.59-2.5,1.57-2.59S1152,550.39,1152.11,551.74Z"/><path class="cls-14" d="M-145.8,1064.85c261.33-15.53,509.41-311,857.25-156.4,330.77,147.06,817.49,153.61,1006.4,101.87,164.42-45,371-154.06,339.27-23.83s-247.53,413.58-1127.41,365.93S-416.21,1080.92-145.8,1064.85"/><path class="cls-14" d="M1292.35,953.5a1.91,1.91,0,1,1-1.9-1.9A1.91,1.91,0,0,1,1292.35,953.5Z"/><path class="cls-14" d="M1402.78,922.67a1.91,1.91,0,1,1-1.9-1.9A1.9,1.9,0,0,1,1402.78,922.67Z"/><path class="cls-14" d="M1060,929a1.91,1.91,0,1,1-1.9-1.9A1.91,1.91,0,0,1,1060,929Z"/><path class="cls-14" d="M715.37,833.51a1.91,1.91,0,1,1-1.9-1.9A1.91,1.91,0,0,1,715.37,833.51Z"/><path class="cls-14" d="M661,828.89a1.91,1.91,0,1,1-1.9-1.91A1.91,1.91,0,0,1,661,828.89Z"/><path class="cls-7" d="M1203.92,923.1a4.77,4.77,0,1,1-4.77-4.77A4.77,4.77,0,0,1,1203.92,923.1Z"/><path class="cls-14" d="M1336.29,654.21s-84,39.95-114.74,76.25l12.09,6.6s52.06-51.69,105.94-76.25Z"/></g></g></svg>