<?xml version="1.0" standalone="no"?>
<!DOCTYPE svg PUBLIC "-//W3C//DTD SVG 20010904//EN"
 "http://www.w3.org/TR/2001/REC-SVG-20010904/DTD/svg10.dtd">
<svg version="1.0" xmlns="http://www.w3.org/2000/svg"
 width="428.000000pt" height="118.000000pt" viewBox="0 0 428.000000 118.000000"
 preserveAspectRatio="xMidYMid meet">

<g transform="translate(0.000000,118.000000) scale(0.100000,-0.100000)"
fill="#000000" stroke="none">
<path d="M135 951 c-49 -23 -89 -64 -109 -113 -20 -47 -21 -140 -1 -177 24
-47 92 -97 176 -131 44 -18 84 -41 89 -51 18 -33 11 -67 -17 -89 -24 -19 -37
-21 -93 -18 -36 3 -87 15 -114 27 -27 12 -51 20 -52 18 -2 -2 -5 -37 -6 -78
l-3 -74 65 -22 c164 -56 323 -6 364 114 44 129 -10 232 -154 295 -25 11 -59
26 -76 34 -82 39 -54 143 40 144 33 0 38 3 33 19 -4 16 4 21 54 32 43 10 59
18 63 33 6 25 -5 32 -67 46 -72 15 -147 12 -192 -9z"/>
<path d="M1070 692 l0 -278 28 -55 c65 -129 219 -176 358 -110 118 56 144 119
144 355 1 126 4 165 15 180 27 36 16 40 -18 8 -33 -32 -57 -41 -57 -22 0 6
-22 8 -55 6 -30 -2 -55 0 -55 5 0 5 27 9 59 9 33 0 63 5 66 10 3 6 15 10 26
10 30 0 22 18 -11 25 -29 6 -37 15 -24 27 3 4 19 2 36 -2 25 -8 29 -7 24 6 -3
9 -6 36 -6 60 l0 45 -72 -3 -73 -3 -1 -36 c0 -25 -9 -48 -27 -69 -32 -38 -34
-63 -7 -90 16 -16 25 -18 40 -10 11 6 20 7 20 1 0 -5 -7 -11 -15 -15 -12 -4
-15 -32 -15 -160 l0 -154 -35 -31 c-41 -36 -96 -41 -146 -15 -54 27 -59 56
-59 334 l0 250 -70 0 -70 0 0 -278z m510 197 c12 -8 12 -10 -5 -8 -11 1 -27 0
-35 -4 -32 -12 -60 -15 -60 -6 0 5 14 9 31 9 17 0 28 4 24 10 -8 13 26 13 45
-1z m-105 -39 c3 -5 0 -10 -9 -10 -8 0 -23 -3 -33 -6 -16 -5 -16 -4 1 10 23
19 32 20 41 6z m-30 -40 c-3 -5 -14 -10 -23 -10 -15 0 -15 2 -2 10 20 13 33
13 25 0z m78 -57 c-7 -2 -19 -2 -25 0 -7 3 -2 5 12 5 14 0 19 -2 13 -5z m12
-32 c7 -12 -12 -24 -25 -16 -11 7 -4 25 10 25 5 0 11 -4 15 -9z m-11 -77 c3
-8 2 -12 -4 -9 -6 3 -10 10 -10 16 0 14 7 11 14 -7z m-4 -105 c0 -5 -7 -9 -15
-9 -9 0 -12 6 -9 15 6 15 24 11 24 -6z"/>
<path d="M1730 598 l0 -373 167 6 c190 6 223 16 303 87 152 134 153 414 2 553
-79 73 -165 97 -364 99 l-108 1 0 -373z m303 330 c51 -29 57 -39 57 -98 0 -41
5 -64 19 -81 55 -72 71 -180 36 -250 -42 -83 -96 -118 -196 -126 l-69 -6 0
227 c0 219 1 226 20 226 16 0 20 7 20 30 0 18 9 38 23 51 12 11 27 24 32 29
14 13 32 12 58 -2z"/>
<path d="M2008 703 c6 -2 18 -2 25 0 6 3 1 5 -13 5 -14 0 -19 -2 -12 -5z"/>
<path d="M2350 963 c0 -5 12 -25 26 -46 20 -31 30 -37 47 -31 12 3 26 10 30
14 14 13 49 -1 43 -17 -3 -8 -2 -12 3 -9 4 3 18 -5 30 -18 20 -21 21 -27 11
-48 -7 -12 -22 -33 -33 -45 l-20 -22 57 -90 56 -89 0 -165 c0 -188 -7 -174 91
-169 l59 4 0 165 0 166 51 81 c29 45 54 83 56 85 2 3 17 -3 34 -13 27 -16 34
-16 55 -5 20 10 32 10 58 1 43 -16 51 -15 36 3 -10 12 -10 15 1 15 45 -1 44
-15 -12 -161 -30 -78 -55 -146 -57 -151 -2 -4 66 -8 152 -8 l156 0 0 -90 0
-90 70 0 69 0 3 88 3 87 40 5 40 5 0 70 0 70 -40 5 -40 5 -2 80 c-1 44 -2 92
-3 108 l0 27 -70 -46 -70 -47 0 -63 0 -64 -50 0 -49 0 24 63 c105 277 125 332
125 339 0 5 -34 8 -76 6 l-77 -3 -30 -82 c-17 -49 -34 -80 -40 -76 -6 4 -7 1
-3 -6 10 -15 -1 -61 -14 -61 -6 0 -9 3 -9 8 5 32 -3 52 -21 52 -13 0 -20 7
-20 19 0 26 17 36 36 20 12 -10 13 -9 9 3 -8 20 -100 59 -122 52 -11 -4 -14
-2 -7 3 14 11 44 56 44 66 0 4 -39 6 -87 5 l-87 -3 -75 -127 c-72 -120 -77
-126 -89 -105 -7 12 -41 69 -75 127 l-63 105 -87 3 c-48 1 -87 -1 -87 -5z
m667 -109 c-1 -1 -15 0 -30 3 -19 4 -25 8 -16 13 10 7 53 -9 46 -16z m-140
-21 c-4 -3 1 -12 11 -19 16 -12 16 -13 0 -14 -9 0 -22 -8 -28 -17 -11 -17 -11
-17 -6 0 3 10 6 27 6 38 0 10 5 19 12 19 6 0 8 -3 5 -7z m58 -53 c-3 -5 -13
-10 -21 -10 -8 0 -14 5 -14 10 0 6 9 10 21 10 11 0 17 -4 14 -10z"/>
<path d="M3739 957 c-9 -7 -24 -37 -34 -68 -15 -47 -21 -55 -39 -52 -33 7 -74
-13 -89 -44 -8 -15 -20 -62 -26 -104 -11 -70 -10 -82 9 -135 26 -69 27 -89 10
-130 -16 -38 -7 -93 22 -130 13 -15 23 -34 24 -42 2 -8 5 -17 9 -20 4 -4 91
-7 193 -8 103 0 212 -4 243 -8 67 -10 106 6 138 57 27 44 32 218 8 263 -9 16
-20 39 -26 51 -6 12 -21 29 -35 38 -20 14 -24 21 -16 35 6 10 9 31 9 47 -1 25
-2 25 -8 -7 -9 -47 -18 -60 -40 -60 -10 0 -24 -7 -31 -15 -18 -22 -85 -37
-162 -36 -86 1 -143 16 -185 47 -26 20 -33 32 -33 60 0 20 7 42 16 51 11 12
14 26 9 54 -8 48 19 135 45 149 15 8 26 4 55 -21 19 -17 35 -37 35 -45 0 -24
39 -54 70 -54 24 0 33 7 49 39 24 46 76 92 96 85 8 -3 23 -29 34 -57 21 -56
29 -52 10 4 -25 74 -57 82 -112 31 -23 -22 -38 -26 -88 -28 -52 -1 -62 2 -75
21 -8 12 -26 27 -40 33 -30 14 -25 14 -45 -1z m211 -73 c0 -36 -52 -58 -78
-32 -25 25 -13 38 33 38 25 0 45 -3 45 -6z m-258 -78 c12 -27 3 -65 -11 -50
-5 5 -12 18 -15 29 -3 11 -3 1 0 -22 5 -38 3 -44 -17 -52 -31 -11 -73 1 -77
23 -14 69 92 132 120 72z m-57 -108 c33 2 28 11 90 -169 36 -104 40 -109 88
-109 23 1 53 7 67 15 45 26 50 21 50 -59 0 -58 4 -79 20 -99 11 -14 20 -28 20
-31 0 -3 -40 -6 -90 -6 -72 0 -90 3 -90 15 0 8 -9 19 -19 25 -31 16 -35 12
-10 -9 l23 -18 -22 -12 c-20 -10 -22 -9 -23 11 l-2 23 -4 -22 c-3 -18 -11 -23
-34 -23 -23 0 -29 5 -30 23 l-2 22 -4 -23 c-5 -25 -15 -28 -32 -8 -16 19 5 34
60 45 24 5 34 9 22 10 -19 1 -23 7 -23 36 0 46 -37 85 -80 85 -37 0 -37 7 -4
56 15 21 19 33 11 26 -13 -12 -18 -9 -33 19 -27 53 -34 91 -28 142 6 43 9 47
28 40 11 -4 35 -6 51 -5z m515 -88 c26 -26 25 -56 -1 -71 -20 -10 -21 -9 -16
10 3 11 1 21 -4 21 -5 0 -9 -7 -9 -16 0 -10 -7 -14 -17 -12 -18 4 -19 8 -8 43
6 18 5 18 -5 3 -6 -10 -15 -18 -20 -18 -11 0 -14 43 -3 53 14 14 64 6 83 -13z
m-385 -23 c4 5 4 2 0 -6 -6 -11 -4 -13 11 -7 14 5 16 4 7 -5 -9 -8 -17 -7 -37
7 -14 11 -26 23 -26 28 0 5 8 2 18 -7 10 -10 22 -14 27 -10z m285 -10 c0 -39
77 -68 115 -43 23 15 25 15 35 -3 5 -11 10 -64 10 -118 0 -80 -4 -104 -20
-130 -53 -88 -184 -84 -230 7 -39 76 -21 241 30 282 26 21 60 24 60 5z m-203
-13 c-3 -3 -12 -4 -19 -1 -8 3 -5 6 6 6 11 1 17 -2 13 -5z m90 -13 c9 -15 8
-23 -3 -40 -19 -27 -50 -27 -64 -1 -24 45 40 85 67 41z m-128 -21 c11 0 31
-11 44 -25 13 -15 33 -27 45 -28 27 -2 21 -11 -22 -31 -58 -27 -89 -22 -113
22 -11 20 -23 50 -27 65 l-7 28 30 -16 c17 -8 39 -15 50 -15z m-154 -145 c36
-35 34 -77 -4 -92 -26 -9 -32 -8 -49 11 -22 23 -37 79 -27 96 11 18 55 10 80
-15z"/>
<path d="M3635 763 c5 -17 2 -23 -9 -23 -8 0 -17 8 -19 18 -4 16 -5 16 -6 -1
-1 -19 19 -31 43 -25 13 3 13 6 0 28 -14 23 -14 23 -9 3z"/>
<path d="M4027 496 c43 -14 41 -31 -2 -30 -19 1 -32 -3 -29 -7 3 -5 18 -9 34
-9 17 0 33 -7 39 -17 10 -17 10 -17 11 0 0 17 20 22 68 18 16 -1 21 2 17 9 -4
7 -24 10 -46 8 -27 -2 -39 0 -39 9 0 7 11 13 24 13 14 0 27 3 29 8 3 4 -27 7
-66 8 -65 1 -69 0 -40 -10z"/>
<path d="M3986 409 c10 -4 31 -8 47 -8 31 -1 38 -21 7 -21 -11 0 -20 -4 -20
-9 0 -6 12 -6 30 -1 16 5 39 6 52 4 13 -2 17 -2 11 2 -23 11 -13 24 17 24 17
0 30 3 30 8 0 4 -44 7 -97 8 -53 0 -88 -3 -77 -7z"/>
<path d="M3990 348 c0 -5 18 -8 40 -8 47 0 53 -18 10 -27 -35 -7 -47 -20 -31
-36 8 -8 11 -6 11 6 0 12 8 17 31 17 18 0 28 -4 24 -10 -4 -6 -11 -7 -17 -4
-6 4 -9 1 -6 -7 5 -16 59 -20 56 -4 -2 6 -6 9 -10 7 -5 -1 -8 2 -8 8 0 5 11
10 25 10 16 0 25 -6 25 -15 0 -8 5 -15 11 -15 24 0 2 35 -25 40 -50 9 -43 28
11 32 31 2 13 5 -50 8 -53 3 -97 2 -97 -2z"/>
<path d="M480 890 l0 -70 90 0 90 0 2 -297 3 -297 28 1 c15 1 47 1 72 2 l45 1
1 298 c0 209 3 290 10 272 6 -14 11 -48 12 -77 3 -70 25 -93 86 -91 86 3 95
30 76 236 l-8 92 -253 0 -254 0 0 -70z m450 26 c0 -2 -13 -6 -29 -8 -17 -2
-28 -1 -25 4 5 8 54 12 54 4z m-12 -34 c2 -7 -3 -12 -12 -12 -9 0 -16 7 -16
16 0 17 22 14 28 -4z m34 -47 c0 -5 -5 -11 -11 -13 -6 -2 -11 4 -11 13 0 9 5
15 11 13 6 -2 11 -8 11 -13z m-92 -9 c0 -8 -7 -16 -15 -20 -15 -5 -21 14 -8
27 11 12 23 8 23 -7z m70 -41 c0 -8 -7 -15 -15 -15 -8 0 -15 7 -15 15 0 8 7
15 15 15 8 0 15 -7 15 -15z m36 -53 c-9 -9 -37 8 -31 18 5 8 11 7 21 -1 8 -6
12 -14 10 -17z m-98 -4 c-6 -18 -28 -21 -28 -4 0 9 7 16 16 16 9 0 14 -5 12
-12z m46 -18 c14 -5 26 -16 26 -25 0 -22 -13 -18 -38 10 -25 28 -24 29 12 15z"/>
<path d="M3734 905 c-7 -19 -14 -43 -14 -54 0 -20 2 -19 36 4 20 14 43 25 50
25 22 0 16 17 -12 39 -36 28 -43 27 -60 -14z m41 -1 c13 -5 14 -8 3 -15 -19
-13 -28 -11 -28 6 0 17 2 18 25 9z"/>
<path d="M4016 919 c-28 -22 -34 -39 -13 -39 7 0 30 -12 51 -26 l38 -26 -7 33
c-11 50 -23 79 -33 79 -5 0 -21 -9 -36 -21z m41 -34 c1 -15 0 -15 -3 -3 -3 9
-13 19 -22 22 -12 3 -12 4 3 3 12 -1 21 -10 22 -22z"/>
<path d="M4117 795 c3 -27 7 -52 9 -54 7 -8 2 54 -6 79 -6 17 -7 9 -3 -25z"/>
<path d="M3836 815 c6 -16 5 -18 -7 -7 -20 18 -33 15 -14 -4 12 -13 19 -14 28
-5 8 8 8 14 -2 24 -10 10 -11 8 -5 -8z"/>
<path d="M3956 814 c-5 -14 -4 -15 9 -4 17 14 19 20 6 20 -5 0 -12 -7 -15 -16z"/>
<path d="M3979 803 c-13 -16 -12 -17 4 -4 9 7 17 15 17 17 0 8 -8 3 -21 -13z"/>
<path d="M294 785 c-4 -9 -2 -21 3 -26 7 -7 12 -3 16 10 6 25 -11 39 -19 16z"/>
<path d="M330 775 c0 -8 2 -15 4 -15 2 0 6 7 10 15 3 8 1 15 -4 15 -6 0 -10
-7 -10 -15z"/>
<path d="M404 774 c3 -8 6 -23 7 -32 0 -14 2 -13 9 3 12 29 12 32 -6 39 -12 5
-15 2 -10 -10z"/>
<path d="M391 744 c0 -11 3 -14 6 -6 3 7 2 16 -1 19 -3 4 -6 -2 -5 -13z"/>
<path d="M3800 753 c19 -3 41 -9 47 -15 9 -7 13 -7 13 0 0 14 -26 22 -63 20
l-32 -1 35 -4z"/>
<path d="M3963 753 c-7 -2 -13 -9 -13 -15 0 -7 4 -7 13 0 6 6 26 12 42 15 l30
4 -30 1 c-16 0 -36 -2 -42 -5z"/>
<path d="M3888 714 c-4 -3 -4 -12 -1 -20 3 -10 -3 -14 -20 -14 -14 0 -28 6
-30 13 -4 9 -6 9 -6 0 -1 -15 34 -35 44 -25 3 4 27 7 52 7 32 0 48 5 51 15 4
12 2 13 -9 3 -20 -19 -50 -16 -47 4 3 17 -22 30 -34 17z"/>
<path d="M3738 703 c7 -3 16 -2 19 1 4 3 -2 6 -13 5 -11 0 -14 -3 -6 -6z"/>
<path d="M4030 700 c-11 -8 -7 -9 15 -4 37 8 45 14 19 14 -10 0 -26 -5 -34
-10z"/>
<path d="M2950 680 c0 -5 11 -10 24 -10 14 0 28 5 31 10 4 6 -7 10 -24 10 -17
0 -31 -4 -31 -10z"/>
<path d="M3740 670 c-11 -8 -7 -9 15 -4 37 8 45 14 19 14 -10 0 -26 -5 -34
-10z"/>
<path d="M4021 676 c2 -2 18 -6 34 -10 22 -5 26 -4 15 4 -14 9 -59 15 -49 6z"/>
<path d="M3877 628 c2 -5 15 -8 28 -8 13 0 26 3 28 8 3 4 -10 7 -28 7 -18 0
-31 -3 -28 -7z"/>
<path d="M915 610 c3 -5 12 -7 20 -3 21 7 19 13 -6 13 -11 0 -18 -4 -14 -10z"/>
</g>
</svg>
